<?xml version="1.0"?>
<svg xmlns="http://www.w3.org/2000/svg" xmlns:xlink="http://www.w3.org/1999/xlink" xmlns:svgjs="http://svgjs.com/svgjs" version="1.1" width="512" height="512" x="0" y="0" viewBox="0 0 64 64" style="enable-background:new 0 0 512 512" xml:space="preserve" class=""><g><path xmlns="http://www.w3.org/2000/svg" d="m10 43h-6c-1.105 0-2-.895-2-2v-24c0-1.105.895-2 2-2h6c1.105 0 2 .895 2 2v24c0 1.105-.895 2-2 2z" fill="#4cd62b" data-original="#e47c6e" style="" class=""/><path xmlns="http://www.w3.org/2000/svg" d="m12 25h40v8h-40z" fill="#8892a0" data-original="#8892a0" style="" class=""/><path xmlns="http://www.w3.org/2000/svg" d="m43 17c-1.657 0-3 1.343-3 3v-2c0-1.657-1.343-3-3-3s-3 1.343-3 3v-2c0-1.657-1.343-3-3-3s-3 1.343-3 3v2c0-1.657-1.343-3-3-3s-3 1.343-3 3v3h-1c-1.657 0-3 1.343-3 3v14c0 3.526 2.609 6.434 6 6.92v5.08h16v-5.683c2.363-1.124 4-3.527 4-6.317v-7.184c1.163-.413 2-1.512 2-2.816v-8c0-1.657-1.343-3-3-3z" fill="#efbe9a" data-original="#efbe9a" style="" class=""/><path xmlns="http://www.w3.org/2000/svg" d="m21 49h22v2h-22z" fill="#4472b2" data-original="#4472b2" style="" class=""/><path xmlns="http://www.w3.org/2000/svg" d="m60 43h-6c-1.105 0-2-.895-2-2v-24c0-1.105.895-2 2-2h6c1.105 0 2 .895 2 2v24c0 1.105-.895 2-2 2z" fill="#4cd62b" data-original="#e47c6e" style="" class=""/><path xmlns="http://www.w3.org/2000/svg" d="m44 31v-2h-2v-9h-2v9h-4v-11h-2v11h-7c2.206 0 4-1.794 4-4 0-1.005-.385-1.914-1-2.618v-4.382h-2v3.142c-.322-.084-.653-.142-1-.142h-6v2h6c1.103 0 2 .897 2 2s-.897 2-2 2h-3c-.552 0-1 .448-1 1v7h-2v2h4c2.206 0 4 1.794 4 4h2c0-.341-.035-.674-.09-1h.09c0-1.103.897-2 2-2h4v-2h-4c-1.267 0-2.384.603-3.118 1.525-1.089-1.525-2.869-2.525-4.882-2.525v-6h1v2z" fill="#db9b7c" data-original="#db9b7c" style=""/></g></svg>
