<svg id="Capa_1" enable-background="new 0 0 512 512" height="512" viewBox="0 0 512 512" width="512" xmlns="http://www.w3.org/2000/svg"><g><path d="m264.663 77.818c-8.828-20.205-41.488-57.27-76.822-76.098-8.924-4.755-19.865.83-21.414 10.823-.677 4.37-1.049 8.262-.612 9.987-31.25-8.431-61.261 9.749-91.554 20.457-2.826.999-5.046 3.219-6.045 6.045-10.708 30.293-28.888 60.304-20.457 91.554-1.725-.437-5.617-.066-9.987.611-9.993 1.549-15.578 12.49-10.823 21.414 18.828 35.334 55.893 67.995 76.098 76.823z" fill="#4b5165"/><path d="m486.201 477.216c-3.965-19.827-45.456-133.918-61.665-167.846 2.592-20.392-2.59-39.789-16.164-53.363-27.164-27.164-77.646-20.725-112.753 14.383-35.108 35.108-41.547 85.589-14.383 112.753.438.438.898.842 1.348 1.263-19.192 35.223-40.709 78.989-44.007 85.722-7.064 14.42-1.101 31.837 13.321 38.9 14.4 7.056 31.827 1.12 38.9-13.321 9.796-19.998 34.047-68.343 50.67-97.575 16.212-3.41 32.697-11.619 47.105-24.316 16.96 43.61 38.429 104.375 40.607 114.803 3.156 15.784 18.503 25.95 34.213 22.808 15.746-3.147 25.958-18.465 22.808-34.211z" fill="#ffd3bd"/><path d="m480.171 456.483c-12.995-40.109-42.55-119.725-55.635-147.112 2.592-20.392-2.59-39.789-16.164-53.363-27.164-27.164-77.646-20.725-112.753 14.383-35.108 35.108-41.547 85.589-14.383 112.753.438.438.898.842 1.348 1.263-11.962 21.954-24.826 47.224-33.62 64.78 11.277 2.873 38.286 12.838 51.769 26.506 11.721-23.372 28.345-55.772 40.735-77.559 16.212-3.41 32.697-11.619 47.105-24.316 12.705 32.669 27.94 74.965 35.701 98.515 8.926-9.704 37.717-19.448 55.897-15.85z" fill="#4b5165"/><path d="m197.525 433.556c-8.639 13.786-26.818 17.96-40.605 9.322-13.785-8.639-17.958-26.818-9.321-40.604 9.665-15.425 50.521-118.646 52.539-135.587 1.906-16.14 16.453-27.762 32.616-25.911 16.164 1.85 27.767 16.459 25.917 32.623-3.313 28.762-48.503 139.979-61.146 160.157z" fill="#ffd3bd"/><path d="m324.558 218.833c-11.758 11.244-30.405 10.828-41.65-.931s-10.862-30.434.93-41.649c11.771-11.236 67.398-87.361 86.868-120.155 8.304-13.987 26.38-18.598 40.369-10.292s18.598 26.38 10.292 40.369c-16.072 27.071-76.634 113.343-96.809 132.658z" fill="#ffbe9d"/><path d="m363.345 338.116c15.685-15.685 65.834-72.721 38.553-95.001-45.386-37.065-143.035-77.231-176.91-43.356s6.291 131.524 43.356 176.91c22.279 27.281 79.316-22.868 95.001-38.553z" fill="#8eafe2"/><path d="m282.048 256.82c16.982-16.982 29.679-37.058 37.35-58.611-37.891-13.314-75.787-17.071-94.41 1.551-18.623 18.623-14.865 56.519-1.551 94.41 21.553-7.672 41.629-20.368 58.611-37.35z" fill="#7c93dd"/><circle cx="104.824" cy="243.299" fill="#ffd3bd" r="37.174"/><circle cx="268.528" cy="79.596" fill="#ffbe9d" r="37.174"/><ellipse cx="190.357" cy="165.129" fill="#ffd3bd" rx="116.759" ry="101.62" transform="matrix(.707 -.707 .707 .707 -61.009 182.968)"/><path d="m287.178 202.372c-112.798 88.097-189.717-15.817-198.802-62.575-14.279 38.314-8.225 80.248 19.42 107.893 39.685 39.685 108.82 34.893 154.417-10.704 10.504-10.505 18.837-22.259 24.965-34.614z" fill="#ffbe9d"/><g><g><g><g><ellipse cx="143.765" cy="234.443" fill="#eda1ab" rx="30.241" ry="24.082" transform="matrix(.707 -.707 .707 .707 -123.668 170.324)"/></g><g><ellipse cx="259.671" cy="118.537" fill="#eda1ab" rx="30.241" ry="24.082" transform="matrix(.707 -.707 .707 .707 -7.763 218.332)"/></g></g></g><g fill="#4b5165"><path d="m139.835 213.088c-1.919 0-3.839-.732-5.304-2.196l-8.741-8.741c-2.929-2.93-2.929-7.678 0-10.607 2.93-2.928 7.678-2.928 10.607 0l8.741 8.741c2.929 2.93 2.929 7.678 0 10.607-1.464 1.463-3.384 2.196-5.303 2.196z"/><path d="m230.816 122.106c-1.919 0-3.839-.732-5.303-2.196l-8.742-8.741c-2.93-2.929-2.93-7.678-.001-10.606 2.93-2.93 7.679-2.929 10.607-.001l8.742 8.741c2.93 2.929 2.93 7.678.001 10.606-1.465 1.465-3.385 2.197-5.304 2.197z"/><path d="m174.624 179.384c-.688 0-1.376-.023-2.066-.071-4.133-.284-7.252-3.864-6.968-7.997.284-4.132 3.855-7.228 7.997-6.968 4.334.295 8.576-1.288 11.639-4.351 3.063-3.062 4.648-7.305 4.351-11.64-.283-4.133 2.837-7.713 6.969-7.996 4.131-.271 7.712 2.836 7.996 6.969.595 8.662-2.58 17.145-8.708 23.274-5.643 5.641-13.277 8.78-21.21 8.78z"/></g></g></g></svg>