<svg id="Capa_1" enable-background="new 0 0 497 497" height="512" viewBox="0 0 497 497" width="512" xmlns="http://www.w3.org/2000/svg"><g><g><g><path d="m295.139 0c25.969 0 47.022 21.075 47.022 47.072 0 1.354-.07 2.691-.182 4.015 4.651-1.015 9.475-1.565 14.43-1.565 37.255 0 67.456 30.234 67.456 67.529 0 8.353-1.525 16.347-4.295 23.732 34.424 3.059 61.419 31.989 61.419 67.246 0 22.376-10.879 42.201-27.624 54.489 16.755 5.544 29.684 20.337 31.951 39.035 3.014 24.856-13.911 47.526-38.195 51.964 7.545 11.221 11.95 24.732 11.95 39.275 0 38.895-31.496 70.424-70.348 70.424-12.638 0-24.487-3.353-34.738-9.194-4.889 24.509-26.494 42.978-52.412 42.978-29.522 0-53.455-23.958-53.455-53.513l-10-201.6 10-194.814c0-25.998 21.052-47.073 47.021-47.073z" fill="#e6989e"/></g></g><g><g><path d="m201.861 0c-25.969 0-47.022 21.075-47.022 47.072 0 1.354.07 2.691.182 4.015-4.651-1.015-9.476-1.565-14.431-1.565-37.255 0-67.456 30.234-67.456 67.529 0 8.353 1.525 16.347 4.295 23.732-34.424 3.059-61.419 31.989-61.419 67.246 0 22.376 10.879 42.201 27.624 54.489-16.755 5.544-29.684 20.337-31.951 39.035-3.014 24.856 13.911 47.526 38.195 51.964-7.545 11.221-11.95 24.732-11.95 39.275 0 38.895 31.496 70.424 70.348 70.424 12.638 0 24.487-3.353 34.737-9.194 4.891 24.509 26.496 42.978 52.414 42.978 29.522 0 53.455-23.958 53.455-53.513v-396.415c0-25.997-21.052-47.072-47.021-47.072z" fill="#e6989e"/></g></g><g><g><path d="m201.861 0c-5.247 0-10.288.873-15 2.461 18.611 6.269 32.021 23.867 32.021 44.612v396.415c0 24.34-16.239 44.871-38.459 51.363 4.761 1.392 9.793 2.15 15.004 2.15 29.522 0 53.455-23.958 53.455-53.513v-396.416c0-25.997-21.052-47.072-47.021-47.072z" fill="#e27f86"/></g></g><g><g><path d="m478.068 332.872c5.81-8.942 8.632-19.9 7.248-31.318-3.129-25.808-26.564-44.19-52.344-41.058-3.155.383-6.2 1.071-9.107 2.031" fill="#e6989e"/></g></g><g><g><path d="m388.724 176.343c20.939-11.462 35.141-33.716 35.141-59.291 0-37.295-30.201-67.529-67.456-67.529-13.97 0-26.949 4.252-37.715 11.533" fill="#e6989e"/></g></g><g><g><path d="m330.389 432.168c12.642 18.733 34.051 31.049 58.334 31.049 38.852 0 70.348-31.53 70.348-70.424 0-21.801-9.895-41.288-25.434-54.206" fill="#e6989e"/></g></g><g><g><path d="m485.316 301.554c-2.267-18.698-15.196-33.491-31.951-39.035 16.744-12.288 27.624-32.113 27.624-54.489 0-35.257-26.994-64.187-61.419-67.246 2.77-7.385 4.295-15.378 4.295-23.732 0-37.295-30.201-67.529-67.456-67.529-4.955 0-9.78.55-14.431 1.565.112-1.325.182-2.661.182-4.015.001-25.998-21.052-47.073-47.021-47.073-6.362 0-12.426 1.272-17.96 3.564 20.135 5.325 34.982 23.678 34.982 45.509v.041c-.002 2.022 1.774 3.547 3.772 3.232 3.414-.538 6.912-.823 10.477-.823 37.255 0 67.456 30.234 67.456 67.529 0 2.269-.113 4.512-.332 6.723-.896 9.024 4.273 17.631 12.807 20.699 26.03 9.358 44.649 34.275 44.649 63.555 0 22.377-10.879 42.202-27.624 54.489 16.755 5.544 29.684 20.337 31.951 39.035 2.042 16.843-5.071 32.683-17.426 42.526-9.563 7.619-13.771 19.964-10.853 31.838 1.329 5.407 2.034 11.059 2.034 16.876 0 32.094-21.453 59.154-50.78 67.642 3.404.509 6.885.782 10.432.782 38.852 0 70.348-31.53 70.348-70.424 0-14.543-4.405-28.055-11.95-39.275 24.283-4.438 41.207-27.108 38.194-51.964z" fill="#e27f86"/></g></g><g><g><path d="m203.127 173.208c-19.385 0-38.477-7.562-52.929-22.014-10.621-10.622-17.736-24.006-20.574-38.705-.785-4.067 1.875-8.001 5.942-8.786 4.075-.787 8.002 1.875 8.786 5.942 2.268 11.747 7.957 22.447 16.453 30.942 18.561 18.561 46.69 22.914 69.998 10.832 3.673-1.905 8.203-.471 10.109 3.207 1.906 3.677.471 8.204-3.207 10.11-10.989 5.698-22.838 8.472-34.578 8.472z" fill="#e27f86"/></g></g><g><g><path d="" style="fill:none;stroke:#000;stroke-width:15;stroke-linecap:round;stroke-linejoin:round;stroke-miterlimit:10"/></g></g><g fill="#e27f86"><path d="m390.388 321.726c-.941-4.034-4.976-6.539-9.008-5.599-12.145 2.834-22.978 9.777-30.627 19.58-10.632-4.577-22.404-5.646-33.889-2.965-4.034.941-6.541 4.975-5.6 9.008s4.977 6.541 9.008 5.599c10.295-2.403 20.906-.657 29.879 4.916 8.972 5.571 15.231 14.3 17.628 24.58.597 2.563.94 5.181 1.021 7.781.125 4.062 3.457 7.269 7.492 7.268.078 0 .157-.001.236-.003 4.14-.128 7.393-3.588 7.264-7.729-.11-3.589-.584-7.196-1.406-10.722-2.776-11.914-9.326-22.307-18.682-29.887 5.459-6.378 12.856-10.898 21.084-12.819 4.034-.941 6.541-4.975 5.6-9.008z"/><path d="m126.945 199.119c2.596-.543 4.823-2.449 5.648-5.166 1.202-3.964-1.036-8.152-4.999-9.355-13.032-3.955-24.446-12.309-32.137-23.524-2.344-3.416-7.015-4.285-10.427-1.943-3.416 2.343-4.286 7.011-1.944 10.427 9.612 14.014 23.871 24.452 40.152 29.393 1.247.379 2.516.417 3.707.168z"/><path d="m180.018 277.13c-13.055 7.328-23.513 18.299-30.244 31.728-4.286 8.55-6.806 17.589-7.663 26.672-16.962 7.108-30.971 20.358-38.882 37.008-1.777 3.741-.186 8.215 3.556 9.993 1.039.494 2.135.728 3.214.728 2.805 0 5.495-1.581 6.779-4.283 5.449-11.469 14.521-20.917 25.599-26.958 2.101 16.368 9.631 31.986 22.136 44.156 1.458 1.418 3.345 2.125 5.23 2.125 1.954 0 3.906-.759 5.376-2.269 2.889-2.969 2.824-7.717-.145-10.606-12.272-11.943-18.55-28.038-18.171-44.299.007-.158.014-.317.011-.477.266-8.511 2.356-17.058 6.371-25.067 5.383-10.741 13.743-19.514 24.176-25.37 3.612-2.027 4.896-6.599 2.869-10.211-2.028-3.613-6.598-4.897-10.212-2.87z"/><path d="m327.296 171.07c.068.14.136.28.214.417 3.828 7.608 6.07 16.116 6.363 25.072.394 12.007-2.768 23.706-9.142 33.831-2.207 3.505-1.154 8.136 2.351 10.343 1.241.782 2.623 1.154 3.989 1.154 2.491 0 4.928-1.241 6.353-3.505 7.977-12.67 11.933-27.302 11.44-42.314-.313-9.559-2.411-18.706-5.992-27.096 11.515-14.339 17.505-32.668 16.513-51.075-.223-4.136-3.782-7.303-7.893-7.086-4.137.223-7.309 3.757-7.086 7.892.683 12.679-2.781 25.312-9.635 35.906-9.656-13.382-23.726-23.515-40.522-28.243-3.986-1.122-8.129 1.2-9.252 5.187-1.122 3.987 1.2 8.129 5.188 9.251 16.487 4.641 29.685 15.792 37.111 30.266z"/><path d="m329.578 432.671c-11.224-4.76-20.775-12.64-27.624-22.789-2.317-3.434-6.98-4.339-10.412-2.021-3.434 2.317-4.339 6.978-2.022 10.412 8.475 12.559 20.301 22.313 34.2 28.208.956.405 1.948.597 2.926.597 2.92 0 5.695-1.716 6.907-4.574 1.618-3.813-.162-8.216-3.975-9.833z"/></g></g></svg>