<?xml version="1.0" encoding="iso-8859-1"?>
<!-- Generator: Adobe Illustrator 19.0.0, SVG Export Plug-In . SVG Version: 6.00 Build 0)  -->
<svg version="1.1" id="Capa_1" xmlns="http://www.w3.org/2000/svg" xmlns:xlink="http://www.w3.org/1999/xlink" x="0px" y="0px"
	 viewBox="0 0 464.004 464.004" style="enable-background:new 0 0 464.004 464.004;" xml:space="preserve">
<path style="fill:#F8C09C;" d="M463.99,39.084C394.066-19.943,289.531-11.11,230.504,58.813
	c-22.208,26.308-35.67,58.88-38.514,93.191v216h112v96h144v-160.68c5.57-3.675,10.913-7.682,16-12V39.084z"/>
<path style="fill:#EF937D;" d="M311.99,200.004c-22.08-0.026-39.974-17.92-40-40h16c0,13.255,10.745,24,24,24s24-10.745,24-24h16
	C351.963,182.084,334.07,199.977,311.99,200.004z"/>
<path style="fill:#D1E3EE;" d="M160.014,194.484l72-2.48v144l-232-8v-128l32-1.104L160.014,194.484z"/>
<path style="fill:#88D0EF;" d="M32.014,198.9l-32,1.104v128l232,8l-139.2-139.208L32.014,198.9z"/>
<g>
	<path style="fill:#F8C09C;" d="M103.99,336.004v-4.416l-88-3.04v135.456h104l-3.856-17.336
		C108.062,410.333,103.99,373.224,103.99,336.004z"/>
	<path style="fill:#F8C09C;" d="M151.99,304.004c0-13.255-10.745-24-24-24s-24,10.745-24,24v27.584l48,1.656V304.004z"/>
	<path style="fill:#F8C09C;" d="M31.99,168.004h32l0,0v48c0,8.837-7.163,16-16,16s-16-7.163-16-16V168.004L31.99,168.004z"/>
	<path style="fill:#F8C09C;" d="M63.99,168.004h32l0,0v48c0,8.837-7.163,16-16,16s-16-7.163-16-16V168.004L63.99,168.004z"/>
	<path style="fill:#F8C09C;" d="M95.99,168.004h32l0,0v48c0,8.837-7.163,16-16,16s-16-7.163-16-16V168.004L95.99,168.004z"/>
	<path style="fill:#F8C09C;" d="M127.99,168.004h32l0,0v48c0,8.837-7.163,16-16,16s-16-7.163-16-16V168.004L127.99,168.004z"/>
</g>
<g>
</g>
<g>
</g>
<g>
</g>
<g>
</g>
<g>
</g>
<g>
</g>
<g>
</g>
<g>
</g>
<g>
</g>
<g>
</g>
<g>
</g>
<g>
</g>
<g>
</g>
<g>
</g>
<g>
</g>
</svg>
