<svg id="Layer_1" enable-background="new 0 0 512 512" height="512" viewBox="0 0 512 512" width="512" xmlns="http://www.w3.org/2000/svg"><g><g><circle cx="256" cy="256" fill="#fab991" r="240"/></g><g><path d="m256 496c132.548 0 240-107.452 240-240h-480c0 132.548 107.452 240 240 240z" fill="#f0915a"/></g><g><path d="m64.007 167.272c-2.693 0-5.322-1.359-6.831-3.825-2.307-3.768-1.122-8.693 2.647-11 14.573-8.92 30.045-16.791 45.986-23.394 40.135-16.623 82.513-25.053 125.955-25.053h48.472c43.441 0 85.819 8.429 125.955 25.054 15.938 6.602 31.409 14.473 45.985 23.394 3.769 2.306 4.954 7.231 2.647 11-2.306 3.768-7.232 4.954-11 2.647-13.866-8.486-28.588-15.976-43.756-22.258-38.184-15.817-78.502-23.837-119.831-23.837h-48.472c-41.331 0-81.648 8.02-119.832 23.836-15.171 6.284-29.894 13.773-43.756 22.258-1.303.799-2.745 1.178-4.169 1.178z" fill="#f0915a"/></g><g><path d="m280.236 144h-48.471c-76.684 0-150.227 30.463-204.451 84.686-7.244 7.244-11.314 17.069-11.314 27.314 0 10.245 4.07 20.07 11.314 27.314 54.223 54.223 127.767 84.686 204.45 84.686h48.471c76.684 0 150.227-30.463 204.451-84.686 7.244-7.244 11.314-17.069 11.314-27.314 0-10.245-4.07-20.07-11.314-27.314-54.223-54.223-127.767-84.686-204.45-84.686z" fill="#d7e6f0"/></g><g><path d="m484.686 228.686c-54.223-54.224-127.767-84.686-204.45-84.686h-48.471c-76.684 0-150.227 30.462-204.451 84.686-7.244 7.244-11.314 17.069-11.314 27.314 0 2.71.293 5.389.846 8 1.537-7.26 5.14-13.986 10.468-19.314 54.223-54.224 127.767-84.686 204.45-84.686h48.471c76.684 0 150.227 30.462 204.451 84.686 5.328 5.328 8.93 12.054 10.468 19.314.553-2.611.846-5.29.846-8 0-10.245-4.07-20.07-11.314-27.314z" fill="#a5c3dc"/></g><g><circle cx="256" cy="256" fill="#2387c3" r="112"/></g><g><path d="m231.764 160h48.471c12.553 0 25.019.832 37.332 2.435-17.666-11.649-38.822-18.435-61.567-18.435s-43.901 6.786-61.568 18.435c12.314-1.603 24.779-2.435 37.332-2.435z" fill="#0569a5"/></g><g><circle cx="256" cy="256" fill="#555a6e" r="48"/></g><g><circle cx="224" cy="224" fill="#d7e6f0" r="32"/></g></g></svg>