<svg id="Capa_1" enable-background="new 0 0 512 512" height="512" viewBox="0 0 512 512" width="512" xmlns="http://www.w3.org/2000/svg"><path d="m306.994 440.918h92.201v71.082h-92.201z" fill="#8f989e"/><path d="m412.072 425.465h-10.302c-5.69 0-10.302 4.612-10.302 10.302v76.233h20.604c5.69 0 10.302-4.612 10.302-10.302v-65.932c0-5.689-4.612-10.301-10.302-10.301z" fill="#687177"/><path d="m399.71 0h-29.875c-5.69 0-10.302 4.612-10.302 10.302v30.905h50.479v-30.905c0-5.69-4.612-10.302-10.302-10.302z" fill="#b7b3ff"/><path d="m410.012 10.302v30.905h-30.905v-30.905c0-5.512-4.327-10.013-9.776-10.291.164-.011.329-.011.504-.011h29.875c5.687 0 10.302 4.615 10.302 10.302z" fill="#9292ff"/><path d="m286.39 399.71h-114.35l-41.207 81.385 99.412 14.422 97.353-14.422z" fill="#9cdbef"/><path d="m280.209 399.71h-99.928c-68.274 0-123.622-55.347-123.622-123.622v-15.453h347.171v15.453c.001 68.275-55.346 123.622-123.621 123.622z" fill="#d2f1ff"/><path d="m403.831 270.938v5.151c0 68.27-55.352 123.622-123.622 123.622h-30.905c68.27 0 123.622-55.352 123.622-123.622v-5.151z" fill="#9cdbef"/><path d="m432.676 270.938h-147.316v-240.033h147.316c22.758 0 41.207 18.449 41.207 41.207v157.618c0 22.759-18.449 41.208-41.207 41.208z" fill="#9cdbef"/><path d="m473.883 72.113v157.617c0 22.757-18.45 41.207-41.207 41.207h-30.905c22.757 0 41.207-18.451 41.207-41.207v-157.617c0-22.757-18.45-41.207-41.207-41.207h30.905c22.757-.001 41.207 18.45 41.207 41.207z" fill="#79c7e2"/><path d="m277.634 0c9.957 0 18.028 8.071 18.028 18.028v227.155h-36.056v-227.155c0-9.957 8.071-18.028 18.028-18.028z" fill="#9292ff"/><path d="m56.145 234.881h239.517v36.056h-239.517c-9.957 0-18.028-8.071-18.028-18.028 0-9.956 8.071-18.028 18.028-18.028z" fill="#b7b3ff"/><path d="m337.899 512h-217.368c-5.69 0-10.302-4.612-10.302-10.302v-10.302c0-5.69 4.612-10.302 10.302-10.302h217.368c5.69 0 10.302 4.612 10.302 10.302v10.302c0 5.69-4.612 10.302-10.302 10.302z" fill="#d2f1ff"/><path d="m348.201 491.396v10.302c0 5.687-4.615 10.302-10.302 10.302h-30.905c5.687 0 10.302-4.615 10.302-10.302v-10.302c0-5.687-4.615-10.302-10.302-10.302h30.905c5.687.001 10.302 4.616 10.302 10.302z" fill="#9cdbef"/><path d="m158.648 198.825v-34.511c0-23.612 19.141-42.752 42.752-42.752 13.37 0 24.209 10.839 24.209 24.209 0 13.37-10.839 24.209-24.209 24.209-11.443 0-22.314 5-29.761 13.688z" fill="#9cdbef"/><path d="m225.61 145.771c0 6.686-2.709 12.733-7.088 17.122-4.389 4.378-10.436 7.088-17.122 7.088-5.728 0-11.301 1.246-16.38 3.585s-9.663 5.759-13.382 10.106l-12.991 15.154v-27.011c3.791-1.205 7.778-1.834 11.847-1.834 6.686 0 12.733-2.709 17.122-7.088 4.378-4.389 7.088-10.436 7.088-17.122s-2.709-12.733-7.088-17.122c-1.216-1.216-2.555-2.297-4.007-3.224 5.419-2.483 11.445-3.863 17.791-3.863 6.686 0 12.733 2.709 17.122 7.088 4.378 4.388 7.088 10.435 7.088 17.121z" fill="#79c7e2"/><path d="m127.742 167.92v-34.511c0-23.612-19.141-42.752-42.752-42.752-13.37 0-24.209 10.839-24.209 24.209 0 13.37 10.839 24.209 24.209 24.209 11.443 0 22.314 5 29.761 13.688z" fill="#9cdbef"/><g fill="#79c7e2"><path d="m127.742 133.408v34.511l-12.991-15.154c-3.719-4.347-8.303-7.768-13.382-10.106-1.473-.68-2.988-1.267-4.533-1.751v-7.5c0-17.266-10.23-32.131-24.961-38.889 3.781-2.452 8.283-3.863 13.114-3.863 23.613 0 42.753 19.141 42.753 42.752z"/><path d="m327.598 481.095h-30.906l-41.207-81.385h30.905z"/></g></svg>
