<svg xmlns="http://www.w3.org/2000/svg" viewBox="0 0 355.13 45.8"><defs><style>.cls-1{isolation:isolate;}.cls-2{fill:#fff;}.cls-3{fill:#4cd62b;}</style></defs><title>move-on-logo</title><g id="Move" class="cls-1"><g id="Move-2" data-name="Move"><path class="cls-2" d="M78.35,13.39H9.66L1.58,59.19H19.9l6.46-36.64h9.16L29.06,59.19H47.38l6.46-36.64H63L56.54,59.19H74.85L82.12,18H77.54Zm54.77,0H96.48L95.68,18H91.1L84.64,54.61h4.58l-.81,4.58h36.64l.8-4.58h4.58L136.89,18h-4.58ZM112.92,50h-9.16l4.85-27.48h9.16Zm55,0h-9.16l6.46-36.64H146.86l-8.08,45.8H180l.81-4.58h4.58l7.26-41.22H174.34ZM246,22.55l1.62-9.16H206.39l-.8,4.58H201l-6.46,36.64h4.58l-.81,4.58h41.21L241.15,50H213.67l1.62-9.16H229l1.61-9.16H216.9l1.62-9.16Z" transform="translate(-1.58 -13.39)"/></g></g><g id="On_copy" data-name="On copy" class="cls-1"><g id="On_copy-2" data-name="On copy"><path class="cls-3" d="M298.17,13.39H261.53L260.72,18h-4.58l-6.46,36.64h4.58l-.8,4.58h36.63l.81-4.58h4.58L301.94,18h-4.58ZM284.94,40.68,270.4,54l-5.46-13.32h5.17l2.13-7.36h-5.18L281.6,20l5.46,13.32h-5.17l-2.13,7.36ZM352.13,18l.81-4.58H311.72l-8.07,45.8H322l6.46-36.64h9.15l-6.46,36.64h18.32L356.71,18Z" transform="translate(-1.58 -13.39)"/></g></g></svg>